<svg xmlns="http://www.w3.org/2000/svg" viewBox="0 0 100 100" width="100%" height="100%">
  <!-- Fluffy Cloud -->
  <path d="M28,68 
           C20,68 15,62 15,55 
           C15,48 20,43 27,42 
           C28,34 35,26 46,26 
           C55,26 62,31 65,38 
           C70,36 76,39 79,44 
           C84,48 85,55 83,60 
           C87,63 87,68 83,72 
           C80,75 75,76 70,76 
           L30,76 
           C24,76 22,72 28,68 Z" 
        fill="#ffffff" stroke="#c2dbf7" stroke-width="1.5" />

  <!-- Cute Eyes -->
  <path d="M38,55 Q43,51 48,55" fill="none" stroke="#4a5568" stroke-width="2.5" stroke-linecap="round" />
  <path d="M37,51 L35,48 M43,49 L43,46 M49,51 L51,48" stroke="#4a5568" stroke-width="1.5" stroke-linecap="round" />
  
  <path d="M56,55 Q61,51 66,55" fill="none" stroke="#4a5568" stroke-width="2.5" stroke-linecap="round" />
  <path d="M55,51 L53,48 M61,49 L61,46 M67,51 L69,48" stroke="#4a5568" stroke-width="1.5" stroke-linecap="round" />

  <!-- Smiling mouth -->
  <path d="M49,60 Q52,64 55,60" fill="none" stroke="#4a5568" stroke-width="2" stroke-linecap="round" />

  <!-- Rosy cheeks -->
  <ellipse cx="36" cy="58" rx="4" ry="2.5" fill="#ffb4a2" opacity="0.8" />
  <ellipse cx="68" cy="58" rx="4" ry="2.5" fill="#ffb4a2" opacity="0.8" />
</svg>
